<svg xmlns="http://www.w3.org/2000/svg" width="390" height="100" class="css-1j8o68f" viewBox="0 0 390 100"><style>@media (prefers-color-scheme:dark){#SvgjsG7471,#SvgjsG7472{fill:#fff}}</style><defs id="SvgjsDefs7469"><linearGradient id="SvgjsLinearGradient7476"><stop id="SvgjsStop7477" offset="0" stop-color="#ef4136"/><stop id="SvgjsStop7478" offset="1" stop-color="#fbb040"/></linearGradient></defs><g id="SvgjsG7470" fill="url(#SvgjsLinearGradient7476)" transform="translate(-11.582 -17.05) scale(1.21528)"><path d="m14.03 50.03 13.5 13.5 13.5-13.5-13.5-13.5-13.5 13.5m13.5-18 18 18-18 18-18-18 18-18" style="fill-rule:evenodd;clip-rule:evenodd"/><path d="m27.53 54.53 4.5-4.5-4.5-4.5-4.5 4.5 4.5 4.5m-9-4.5 9-9 9 9-9 9-9-9m49.5 22.5-18-18-18 18 18 18 18-18m4.5 0-22.5 22.5-22.5-22.5 22.5-22.5 22.5 22.5" style="fill-rule:evenodd;clip-rule:evenodd"/><path d="m59.03 72.53-9-9-9 9 9 9 9-9m4.5 0-13.5 13.5-13.5-13.5 13.5-13.5 13.5 13.5" style="fill-rule:evenodd;clip-rule:evenodd"/><path d="m54.53 72.53-4.5 4.5-4.5-4.5 4.5-4.5 4.5 4.5m-13.5-45 9 9 9-9-9-9-9 9m-4.5 0 13.5-13.5 13.5 13.5-13.5 13.5-13.5-13.5" style="fill-rule:evenodd;clip-rule:evenodd"/><path d="m45.53 27.53 4.5-4.5 4.5 4.5-4.5 4.5-4.5-4.5m27 18-4.5 4.5 4.5 4.5 4.5-4.5-4.5-4.5m9 4.5-9 9-9-9 9-9 9 9" style="fill-rule:evenodd;clip-rule:evenodd"/></g><path id="SvgjsG7471" fill="#111" d="M-298 0h3v42h-3z" transform="translate(406 28)"/><path id="SvgjsG7472" fill="#111" d="m5.8 5.72 3.34 9.82h.04l3.16-9.82h4.42V20h-2.94V9.88h-.04L10.28 20H7.86L4.36 9.98h-.04V20H1.38V5.72H5.8zm24.549 3.66c.973 0 1.84.227 2.6.68s1.357 1.11 1.79 1.97.65 1.85.65 2.97c0 .107-.007.28-.02.52h-7.46c.027.827.243 1.47.65 1.93s1.03.69 1.87.69c.52 0 .997-.13 1.43-.39s.71-.577.83-.95h2.5c-.733 2.32-2.347 3.48-4.84 3.48-.947-.013-1.823-.22-2.63-.62s-1.45-1.023-1.93-1.87-.72-1.83-.72-2.95c0-1.053.243-2.013.73-2.88s1.133-1.513 1.94-1.94 1.677-.64 2.61-.64zm2.18 4.34c-.133-.773-.38-1.333-.74-1.68s-.873-.52-1.54-.52c-.693 0-1.24.197-1.64.59s-.633.93-.7 1.61h4.62zm16.829-4.34c1.507 0 2.513.573 3.02 1.72.787-1.147 1.833-1.72 3.14-1.72 1.293 0 2.243.327 2.85.98s.91 1.553.91 2.7V20h-2.84v-5.98c0-.907-.137-1.533-.41-1.88s-.717-.52-1.33-.52c-1.267 0-1.9.867-1.9 2.6V20h-2.84v-6.1c0-.88-.14-1.48-.42-1.8s-.713-.48-1.3-.48c-.547 0-1.003.217-1.37.65s-.55 1.003-.55 1.71V20h-2.84V9.66h2.68v1.4h.04c.787-1.12 1.84-1.68 3.16-1.68zm23.289 0c.973 0 1.84.227 2.6.68s1.357 1.11 1.79 1.97.65 1.85.65 2.97c0 .107-.007.28-.02.52h-7.46c.027.827.243 1.47.65 1.93s1.03.69 1.87.69c.52 0 .997-.13 1.43-.39s.71-.577.83-.95h2.5c-.733 2.32-2.347 3.48-4.84 3.48-.947-.013-1.823-.22-2.63-.62s-1.45-1.023-1.93-1.87-.72-1.83-.72-2.95c0-1.053.243-2.013.73-2.88s1.133-1.513 1.94-1.94 1.677-.64 2.61-.64zm2.18 4.34c-.133-.773-.38-1.333-.74-1.68s-.873-.52-1.54-.52c-.693 0-1.24.197-1.64.59s-.633.93-.7 1.61h4.62zm16.809-4.34c1.32 0 2.277.333 2.87 1s.89 1.727.89 3.18V20h-2.84v-5.86c0-.853-.137-1.487-.41-1.9s-.743-.62-1.41-.62c-.773 0-1.333.233-1.68.7s-.52 1.233-.52 2.3V20h-2.84V9.66h2.7v1.44h.06c.707-1.147 1.767-1.72 3.18-1.72zm15.869-2.82v3.1h2.08v1.9h-2.08v5.12c0 .48.08.8.24.96s.48.24.96.24c.347 0 .64-.027.88-.08v2.22c-.4.067-.96.1-1.68.1-1.093 0-1.907-.187-2.44-.56s-.8-1.02-.8-1.94v-6.06h-1.72v-1.9h1.72v-3.1h2.84zm14.809 2.82c1.653 0 2.96.503 3.92 1.51s1.44 2.323 1.44 3.95c0 1.64-.49 2.957-1.47 3.95s-2.277 1.49-3.89 1.49c-1.64 0-2.94-.503-3.9-1.51s-1.44-2.317-1.44-3.93c0-1.667.49-2.993 1.47-3.98s2.27-1.48 3.87-1.48zm-2.5 5.46c0 1.053.213 1.867.64 2.44s1.047.86 1.86.86c.84 0 1.47-.293 1.89-.88s.63-1.393.63-2.42c0-1.067-.217-1.887-.65-2.46s-1.063-.86-1.89-.86c-.8 0-1.413.287-1.84.86s-.64 1.393-.64 2.46zm22.469-9.12c2.027 0 3.62.627 4.78 1.88s1.74 2.98 1.74 5.18c0 2.28-.583 4.053-1.75 5.32s-2.73 1.9-4.69 1.9h-6.2V5.72h6.12zm-.2 11.64c1.133 0 2.013-.373 2.64-1.12s.94-1.807.94-3.18c0-1.573-.337-2.75-1.01-3.53s-1.71-1.17-3.11-1.17h-2.24v9h2.78zm22.369-11.64 5.34 14.28h-3.26l-1.08-3.18h-5.34l-1.12 3.18h-3.18l5.42-14.28h3.22zm-1.66 3.52-1.86 5.24h3.7l-1.8-5.24h-.04zm20.989-3.86c2.107 0 3.803.7 5.09 2.1s1.93 3.213 1.93 5.44c0 2.173-.647 3.953-1.94 5.34s-2.987 2.08-5.08 2.08c-2.107 0-3.803-.693-5.09-2.08s-1.93-3.167-1.93-5.34c0-2.213.647-4.023 1.94-5.43s2.987-2.11 5.08-2.11zm-3.88 7.54c0 1.44.34 2.597 1.02 3.47s1.633 1.31 2.86 1.31c1.2 0 2.147-.43 2.84-1.29s1.04-2.023 1.04-3.49c0-1.533-.343-2.733-1.03-3.6s-1.643-1.3-2.87-1.3c-1.2 0-2.143.433-2.83 1.3s-1.03 2.067-1.03 3.6z" transform="translate(124.088 31.544) scale(1.3858)"/></svg>