<svg width="100" height="100" class="css-1j8o68f" viewBox="0 0 88 99"><defs><linearGradient id="a"><stop offset="0" stop-color="#ef4136"/><stop offset="1" stop-color="#fbb040"/></linearGradient></defs><g fill="url(#a)" transform="translate(-11.582 -17.05) scale(1.21528)"><path xmlns="http://www.w3.org/2000/svg" d="m14.03 50.03 13.5 13.5 13.5-13.5-13.5-13.5-13.5 13.5m13.5-18 18 18-18 18-18-18 18-18" style="fill-rule:evenodd;clip-rule:evenodd"/><path xmlns="http://www.w3.org/2000/svg" d="m27.53 54.53 4.5-4.5-4.5-4.5-4.5 4.5 4.5 4.5m-9-4.5 9-9 9 9-9 9-9-9m49.5 22.5-18-18-18 18 18 18 18-18m4.5 0-22.5 22.5-22.5-22.5 22.5-22.5 22.5 22.5" style="fill-rule:evenodd;clip-rule:evenodd"/><path xmlns="http://www.w3.org/2000/svg" d="m59.03 72.53-9-9-9 9 9 9 9-9m4.5 0-13.5 13.5-13.5-13.5 13.5-13.5 13.5 13.5" style="fill-rule:evenodd;clip-rule:evenodd"/><path xmlns="http://www.w3.org/2000/svg" d="m54.53 72.53-4.5 4.5-4.5-4.5 4.5-4.5 4.5 4.5m-13.5-45 9 9 9-9-9-9-9 9m-4.5 0 13.5-13.5 13.5 13.5-13.5 13.5-13.5-13.5" style="fill-rule:evenodd;clip-rule:evenodd"/><path xmlns="http://www.w3.org/2000/svg" d="m45.53 27.53 4.5-4.5 4.5 4.5-4.5 4.5-4.5-4.5m27 18-4.5 4.5 4.5 4.5 4.5-4.5-4.5-4.5m9 4.5-9 9-9-9 9-9 9 9" style="fill-rule:evenodd;clip-rule:evenodd"/></g></svg>