<svg xmlns="http://www.w3.org/2000/svg" width="650" height="650" viewBox="0 0 650 650"><circle cx="325" cy="325" r="325" fill="#f8fcfc"/><mask id="a" width="650" height="650" x="0" y="0" maskUnits="userSpaceOnUse" style="mask-type:alpha"><circle cx="325" cy="325" r="325"/></mask><g fill-rule="evenodd" clip-rule="evenodd" mask="url(#a)"><path fill="url(#b)" d="m-520-127 381 381 381-381-381-381-381 381Zm381-508 508 508-508 508-508-508 508-508Z"/><path fill="url(#c)" d="m-139 0 127-127-127-127-127 127L-139 0Zm-254-127 254-254 254 254-254 254-254-254Zm1397 635L496 0-12 508l508 508 508-508Zm127 0-635 635-635-635 635-635 635 635Z"/><path fill="url(#d)" d="M750 508 496 254 242 508l254 254 254-254Zm127 0L496 889 115 508l381-381 381 381Z"/><path fill="url(#e)" d="M623 508 496 635 369 508l127-127 127 127ZM242-762l254 254 254-254-254-254-254 254Zm-127 0 381-381 381 381-381 381-381-381Z"/><path fill="url(#f)" d="m369-762 127-127 127 127-127 127-127-127Zm762 508-127 127L1131 0l127-127-127-127Zm254 127-254 254-254-254 254-254 254 254Z"/></g><defs><linearGradient id="b" x1="-647" x2="369" y1="-635" y2="-635" gradientUnits="userSpaceOnUse"><stop stop-color="#EF4136"/><stop offset="1" stop-color="#FBB040"/></linearGradient><linearGradient id="c" x1="-393" x2="1131" y1="-381" y2="-381" gradientUnits="userSpaceOnUse"><stop stop-color="#EF4136"/><stop offset="1" stop-color="#FBB040"/></linearGradient><linearGradient id="d" x1="115" x2="877" y1="127" y2="127" gradientUnits="userSpaceOnUse"><stop stop-color="#EF4136"/><stop offset="1" stop-color="#FBB040"/></linearGradient><linearGradient id="e" x1="115" x2="877" y1="-1143" y2="-1143" gradientUnits="userSpaceOnUse"><stop stop-color="#EF4136"/><stop offset="1" stop-color="#FBB040"/></linearGradient><linearGradient id="f" x1="369" x2="1385" y1="-889" y2="-889" gradientUnits="userSpaceOnUse"><stop stop-color="#EF4136"/><stop offset="1" stop-color="#FBB040"/></linearGradient></defs></svg>